<?xml version="1.0" standalone="no"?>
<!DOCTYPE svg PUBLIC "-//W3C//DTD SVG 20010904//EN"
 "http://www.w3.org/TR/2001/REC-SVG-20010904/DTD/svg10.dtd">
<svg version="1.0" xmlns="http://www.w3.org/2000/svg"
 width="1024.000000pt" height="1024.000000pt" viewBox="0 0 1024.000000 1024.000000"
 preserveAspectRatio="xMidYMid meet">

<g transform="translate(0.000000,1024.000000) scale(0.100000,-0.100000)"
fill="#000000" stroke="none">
<path d="M2775 8245 c-147 -27 -308 -92 -430 -175 -307 -207 -496 -543 -535
-947 -14 -149 -14 -4068 0 -4218 27 -279 129 -524 306 -729 163 -189 445 -339
708 -375 50 -7 371 -11 906 -11 l828 0 21 62 c12 35 29 93 40 130 l18 68 -277
0 -277 0 5 25 c12 65 -56 129 -138 130 l-45 0 -7 50 c-26 181 -164 369 -330
449 -90 43 -169 64 -273 73 l-80 6 -38 78 c-26 54 -61 102 -111 156 l-73 78
631 -3 c430 -2 643 0 668 8 109 32 119 173 15 221 -39 17 -70 19 -378 19
l-336 0 -12 58 c-47 213 -219 410 -413 477 -32 10 -58 22 -58 26 0 17 90 83
160 119 177 89 408 132 1020 189 360 34 561 41 1170 41 l585 0 110 121 c61 66
182 201 270 300 88 98 170 186 182 194 40 28 107 47 175 48 l67 2 122 140 c67
77 145 165 173 196 28 30 88 98 132 150 335 388 437 504 444 507 10 4 127 -54
221 -109 79 -46 151 -125 128 -143 -8 -6 -36 -38 -64 -71 -27 -33 -65 -76 -83
-95 -19 -19 -46 -51 -60 -70 -15 -19 -58 -73 -97 -120 -39 -47 -81 -98 -93
-114 -12 -15 -41 -50 -64 -76 -52 -57 -65 -72 -153 -180 -113 -138 -224 -270
-241 -285 -6 -5 -17 -21 -26 -35 -9 -14 -49 -64 -89 -111 -41 -47 -94 -110
-119 -139 -25 -30 -76 -90 -115 -135 -65 -76 -211 -250 -280 -335 -16 -20 -73
-85 -125 -146 -52 -60 -105 -120 -116 -134 -12 -14 -64 -74 -115 -134 -52 -60
-107 -125 -124 -145 -16 -20 -59 -70 -95 -112 -94 -109 -104 -123 -110 -137
-3 -8 -44 24 -110 87 l-105 99 31 33 c35 38 457 514 665 750 75 84 183 206
239 269 131 146 133 150 124 195 -13 72 -103 125 -160 94 -14 -7 -61 -54 -106
-103 -124 -138 -247 -274 -309 -341 -61 -65 -353 -393 -409 -459 -19 -23 -103
-118 -187 -212 l-151 -170 -99 -34 c-139 -48 -251 -94 -273 -112 -12 -11 -34
-82 -70 -229 -67 -279 -150 -636 -190 -824 -31 -144 -61 -271 -205 -860 -57
-232 -64 -273 -54 -297 13 -31 43 -43 87 -35 24 4 134 51 562 236 149 65 844
361 1095 466 196 83 245 107 267 134 18 21 24 21 507 21 294 0 520 4 567 11
431 60 789 360 918 769 55 173 56 201 54 1145 l-3 868 -115 -148 c-63 -81
-162 -209 -219 -284 -57 -75 -126 -162 -152 -194 -27 -33 -46 -64 -42 -69 3
-7 1 -8 -5 -4 -12 7 -25 -5 -99 -101 -26 -34 -110 -142 -187 -240 -76 -98
-144 -184 -150 -192 -13 -17 -10 -16 62 32 85 58 190 88 320 94 131 6 211 -10
287 -58 39 -25 45 -33 45 -63 0 -60 -6 -66 -48 -45 -94 47 -301 63 -436 34
-37 -8 -125 -38 -195 -66 -115 -47 -129 -56 -166 -102 -93 -116 -163 -207
-222 -287 -35 -47 -78 -101 -97 -120 -18 -19 -76 -91 -127 -158 -52 -68 -122
-161 -157 -205 -162 -209 -201 -271 -258 -413 -32 -76 -60 -143 -64 -147 -4
-4 -10 90 -14 209 l-7 216 24 27 c13 14 104 129 203 256 98 126 233 298 299
381 133 169 418 531 654 832 85 108 305 386 490 616 185 231 386 483 446 560
81 103 126 151 167 178 126 84 248 223 291 331 28 73 28 193 -1 266 l-21 54
32 41 c17 23 75 95 128 161 291 364 367 479 399 603 14 56 14 203 -1 272 -39
183 -192 352 -374 412 -143 47 -326 26 -450 -53 -82 -52 -181 -163 -517 -582
l-117 -145 -53 20 c-74 29 -203 29 -276 0 -122 -47 -205 -143 -261 -299 -18
-48 -39 -99 -48 -113 -44 -67 -532 -627 -577 -661 -12 -8 -42 -27 -68 -42 -26
-15 -68 -45 -93 -67 -34 -29 -55 -40 -79 -40 -19 0 -53 -11 -77 -24 -24 -13
-102 -48 -174 -76 -71 -29 -161 -66 -198 -82 -199 -86 -502 -175 -687 -202
-157 -22 -399 -38 -539 -34 l-124 3 80 70 c164 142 573 504 733 650 91 83 359
319 595 525 235 206 476 417 534 468 l105 92 572 0 572 0 114 128 c62 70 155
179 207 242 52 63 110 132 129 152 l35 37 -17 93 c-43 234 -145 434 -309 605
-121 126 -251 209 -427 271 -188 66 -26 62 -2644 61 -1883 -1 -2385 -4 -2441
-14z m1630 -322 c18 -187 -30 -422 -123 -608 -122 -244 -350 -474 -587 -593
-331 -165 -741 -170 -1060 -13 -180 89 -310 211 -464 435 l-73 108 22 81 c71
255 234 458 457 570 76 39 180 77 238 86 27 5 395 9 817 10 l766 1 7 -77z
m3305 53 c148 -42 288 -125 396 -233 101 -102 172 -231 210 -381 21 -82 24
-118 24 -268 l0 -174 -277 3 -278 2 -6 125 c-6 145 -29 226 -88 317 -142 220
-400 298 -629 191 -23 -11 -44 -19 -46 -17 -1 2 -14 24 -28 49 -35 60 -130
154 -194 191 -72 41 -123 57 -215 69 -221 27 -449 -86 -558 -279 -34 -61 -38
-64 -91 -78 -105 -27 -209 -115 -258 -221 -24 -51 -27 -69 -27 -167 0 -102 2
-115 31 -176 63 -131 192 -227 336 -250 35 -5 182 -9 326 -7 144 2 262 0 262
-4 0 -4 -47 -46 -103 -95 -57 -48 -202 -176 -323 -283 -262 -233 -408 -362
-637 -563 -95 -83 -257 -228 -362 -322 -316 -284 -416 -370 -428 -370 -10 0
-134 133 -470 505 -163 180 -193 205 -248 204 -48 -2 -53 -6 -266 -210 l-168
-161 -40 51 c-22 28 -127 157 -234 286 -176 213 -378 458 -504 614 -27 32 -47
60 -45 61 2 2 32 -4 68 -13 98 -25 493 -24 610 1 205 44 402 130 563 244 108
77 275 245 360 363 75 106 173 296 211 410 52 156 68 256 74 438 l5 172 1491
-2 c1418 -3 1494 -4 1556 -22z m-1062 -395 c61 -31 124 -92 150 -144 12 -24
28 -77 36 -117 16 -87 44 -120 103 -120 28 0 46 10 89 49 105 96 232 134 328
97 51 -20 129 -98 153 -154 11 -24 18 -78 21 -154 l4 -118 -729 0 c-807 0
-800 -1 -860 62 -35 36 -63 95 -63 130 1 48 37 106 80 128 l42 21 33 -25 c44
-34 94 -34 131 -3 23 20 29 35 35 96 14 126 91 224 208 265 65 23 182 16 239
-13z m-4408 -931 c53 -63 197 -241 320 -395 123 -154 276 -343 340 -420 64
-77 251 -304 415 -505 164 -201 355 -432 424 -513 70 -82 129 -154 133 -162
12 -21 -86 2 -392 92 -155 45 -155 45 -215 104 -33 32 -78 74 -100 93 -60 51
-233 149 -251 142 -8 -3 -13 -2 -10 3 7 10 -28 27 -229 111 -82 34 -248 109
-369 166 -120 57 -222 104 -226 104 -4 0 -10 10 -12 23 -3 12 -6 328 -7 702
l-3 679 43 -54 c24 -30 86 -107 139 -170z m6579 65 c51 -30 132 -85 179 -122
91 -71 242 -217 242 -234 0 -5 -19 -35 -42 -66 -24 -30 -47 -62 -53 -69 -8
-11 -24 0 -75 50 -83 81 -262 216 -380 286 -61 36 -89 58 -85 68 6 17 108 142
116 142 3 0 47 -25 98 -55z m-300 -327 c68 -38 241 -159 260 -182 12 -14 10
-19 -10 -36 -12 -12 -28 -19 -34 -17 -6 3 -46 30 -90 62 -44 31 -115 78 -157
104 -43 25 -77 50 -78 55 0 13 31 46 43 46 5 0 35 -14 66 -32z m-454 -113
c134 -50 372 -193 525 -315 109 -88 262 -244 287 -295 44 -87 38 -132 -30
-210 l-32 -37 -55 58 c-216 230 -506 444 -817 602 -62 31 -113 63 -113 70 0
21 36 86 63 110 22 21 63 39 94 41 7 1 42 -10 78 -24z m-3974 -897 c30 -35
104 -117 164 -183 156 -169 295 -327 295 -336 0 -4 -8 -10 -17 -14 -32 -12
-235 -18 -365 -10 l-127 7 -127 151 c-70 84 -134 160 -143 171 -15 18 -9 26
119 147 74 71 137 129 141 129 3 0 30 -28 60 -62z m-2014 -65 c-2 -21 -4 -6
-4 32 0 39 2 55 4 38 2 -18 2 -50 0 -70z m0 -255 c-2 -13 -4 -3 -4 22 0 25 2
35 4 23 2 -13 2 -33 0 -45z m0 -130 c-3 -7 -5 -2 -5 12 0 14 2 19 5 13 2 -7 2
-19 0 -25z m764 -94 c30 -9 71 -25 91 -35 48 -25 154 -113 169 -142 12 -21 11
-22 -8 -4 -68 60 -253 76 -387 33 -83 -26 -190 -91 -180 -108 4 -6 3 -8 -3 -5
-6 4 -23 -5 -37 -18 -23 -21 -37 -25 -94 -25 -37 0 -87 -5 -111 -11 -24 -5
-46 -7 -49 -4 -10 9 43 106 87 161 52 66 133 121 219 151 83 28 220 31 303 7z
m3519 -34 c0 -5 -10 -29 -22 -54 -20 -42 -24 -45 -82 -56 -89 -17 -159 -56
-221 -121 -61 -64 -69 -59 -26 16 59 103 157 176 284 210 64 17 67 17 67 5z
m-3865 -521 c151 -28 292 -145 350 -289 27 -68 32 -206 10 -288 -21 -79 -45
-115 -45 -67 0 39 -22 119 -47 175 -48 104 -161 217 -267 266 -110 50 -295 69
-380 39 -46 -16 -56 -13 -56 21 0 68 174 151 321 153 30 1 82 -4 114 -10z
m626 -650 c56 -30 179 -146 179 -168 0 -6 -19 3 -42 19 -50 36 -115 67 -163
76 -32 6 -33 8 -37 55 -1 27 -1 49 1 49 2 0 29 -14 62 -31z m-719 -140 c29 -6
77 -23 106 -36 59 -28 162 -124 162 -151 0 -10 -3 -13 -8 -6 -19 28 -152 67
-264 78 -79 8 -245 -11 -290 -33 l-38 -18 0 58 c0 55 2 59 30 74 80 41 202 55
302 34z m3187 -465 c92 -82 349 -318 573 -528 l138 -128 -2 -230 -3 -230 -330
-140 c-312 -132 -394 -166 -525 -217 l-55 -21 27 24 c15 13 35 30 45 38 10 7
42 40 72 73 186 206 179 521 -13 542 -77 9 -227 -54 -428 -179 -43 -26 -78
-44 -78 -39 0 11 22 107 135 596 83 362 94 405 107 420 7 7 172 70 247 94 2 0
42 -33 90 -75z m2556 -48 c68 -34 155 -99 155 -116 0 -5 -15 -1 -32 8 -44 21
-173 20 -258 -2 -227 -61 -397 -253 -418 -473 l-8 -78 -23 50 c-60 132 -74
200 -61 294 40 286 375 450 645 317z m-5432 -5 c151 -52 265 -188 287 -341 5
-32 6 -74 4 -92 -10 -71 -68 -227 -80 -215 -3 2 -9 33 -15 67 -11 70 -64 194
-79 185 -5 -3 -8 0 -5 7 13 35 -180 198 -238 201 -14 1 -23 5 -21 8 15 25
-254 50 -333 31 -39 -9 -42 -8 -33 8 10 18 100 90 140 111 99 51 270 65 373
30z m4563 -443 c-3 -13 -6 -47 -6 -75 l0 -53 -52 0 c-29 0 -66 -7 -81 -15 -15
-8 -25 -10 -22 -5 7 12 -17 3 -71 -25 -74 -39 -77 -38 -45 8 57 84 138 145
226 173 55 17 58 17 51 -8z m-3888 -18 c100 -35 180 -98 218 -173 l16 -30 -47
28 c-67 39 -136 55 -237 55 l-88 0 0 59 c0 33 -3 67 -7 77 -5 15 -1 16 43 9
27 -4 73 -15 102 -25z"/>
<path d="M4840 7132 c-72 -36 -104 -122 -75 -198 38 -101 174 -124 254 -43 61
60 60 147 -1 206 -57 55 -116 67 -178 35z"/>
<path d="M4339 6287 c-57 -39 -74 -98 -44 -157 32 -62 10 -60 573 -60 563 0
556 -1 587 60 30 58 10 125 -48 160 -31 19 -54 20 -533 20 l-501 0 -34 -23z"/>
<path d="M7880 5536 c0 -8 4 -17 9 -20 5 -4 7 3 4 14 -6 23 -13 26 -13 6z"/>
<path d="M6704 4738 l-19 -23 23 19 c12 11 22 21 22 23 0 8 -8 2 -26 -19z"/>
<path d="M6739 4733 c-13 -16 -12 -17 4 -4 9 7 17 15 17 17 0 8 -8 3 -21 -13z"/>
<path d="M6659 4683 c-13 -16 -12 -17 4 -4 9 7 17 15 17 17 0 8 -8 3 -21 -13z"/>
<path d="M5456 4039 c-31 -25 -34 -61 -6 -89 18 -18 33 -20 169 -20 l149 0 57
65 57 65 -200 0 c-186 0 -201 -1 -226 -21z"/>
<path d="M3883 3840 c-58 -35 -78 -102 -48 -160 31 -60 34 -60 482 -60 392 0
409 1 441 20 18 11 40 37 48 57 22 52 -1 111 -55 141 -38 22 -47 22 -437 22
-378 0 -401 -1 -431 -20z"/>
<path d="M5130 3733 c-52 -67 30 -156 98 -106 65 49 44 125 -35 131 -34 3 -44
-1 -63 -25z"/>
<path d="M4485 2945 c-55 -54 -16 -145 61 -145 50 0 94 40 94 85 0 74 -102
113 -155 60z"/>
</g>
</svg>
